<mxfile host="app.diagrams.net" agent="Mozilla/5.0 (Macintosh; Intel Mac OS X 10_15_7) AppleWebKit/605.1.15 (KHTML, like Gecko) Version/17.6 Safari/605.1.15" version="25.0.1">
  <diagram name="Page-1" id="gcOh2L13ghurHqlArtQZ">
    <mxGraphModel dx="2010" dy="696" grid="1" gridSize="10" guides="1" tooltips="1" connect="1" arrows="1" fold="1" page="1" pageScale="1" pageWidth="827" pageHeight="1169" background="#ffffff" math="0" shadow="0">
      <root>
        <mxCell id="0" />
        <mxCell id="1" parent="0" />
        <mxCell id="uvgIFms-rv46Gu-G6dfy-30" style="edgeStyle=orthogonalEdgeStyle;rounded=0;orthogonalLoop=1;jettySize=auto;html=1;exitX=0.5;exitY=1;exitDx=0;exitDy=0;entryX=0.5;entryY=0;entryDx=0;entryDy=0;" edge="1" parent="1" source="VRNMHvbQ2h5_KSJw3uvR-1" target="uvgIFms-rv46Gu-G6dfy-111">
          <mxGeometry relative="1" as="geometry">
            <mxPoint x="380" y="150" as="targetPoint" />
          </mxGeometry>
        </mxCell>
        <mxCell id="VRNMHvbQ2h5_KSJw3uvR-1" value="" style="ellipse;whiteSpace=wrap;html=1;aspect=fixed;" parent="1" vertex="1">
          <mxGeometry x="280" y="120" width="40" height="40" as="geometry" />
        </mxCell>
        <mxCell id="uvgIFms-rv46Gu-G6dfy-117" style="edgeStyle=orthogonalEdgeStyle;rounded=0;orthogonalLoop=1;jettySize=auto;html=1;exitX=0.5;exitY=1;exitDx=0;exitDy=0;entryX=0.5;entryY=0;entryDx=0;entryDy=0;" edge="1" parent="1" source="uvgIFms-rv46Gu-G6dfy-111" target="uvgIFms-rv46Gu-G6dfy-116">
          <mxGeometry relative="1" as="geometry" />
        </mxCell>
        <mxCell id="uvgIFms-rv46Gu-G6dfy-111" value="Receive a list composed of 2 strings" style="rounded=1;whiteSpace=wrap;html=1;" vertex="1" parent="1">
          <mxGeometry x="240" y="200" width="120" height="40" as="geometry" />
        </mxCell>
        <mxCell id="uvgIFms-rv46Gu-G6dfy-122" style="edgeStyle=orthogonalEdgeStyle;rounded=0;orthogonalLoop=1;jettySize=auto;html=1;exitX=1;exitY=0.5;exitDx=0;exitDy=0;entryX=0;entryY=0.5;entryDx=0;entryDy=0;" edge="1" parent="1" source="uvgIFms-rv46Gu-G6dfy-112" target="uvgIFms-rv46Gu-G6dfy-113">
          <mxGeometry relative="1" as="geometry" />
        </mxCell>
        <mxCell id="uvgIFms-rv46Gu-G6dfy-112" value="Return &#39;Yes&#39;" style="rounded=1;whiteSpace=wrap;html=1;" vertex="1" parent="1">
          <mxGeometry x="400" y="455" width="120" height="40" as="geometry" />
        </mxCell>
        <mxCell id="uvgIFms-rv46Gu-G6dfy-113" value="" style="ellipse;whiteSpace=wrap;html=1;aspect=fixed;strokeWidth=3;" vertex="1" parent="1">
          <mxGeometry x="560" y="455" width="40" height="40" as="geometry" />
        </mxCell>
        <mxCell id="uvgIFms-rv46Gu-G6dfy-126" style="edgeStyle=orthogonalEdgeStyle;rounded=0;orthogonalLoop=1;jettySize=auto;html=1;exitX=0.5;exitY=1;exitDx=0;exitDy=0;" edge="1" parent="1" source="uvgIFms-rv46Gu-G6dfy-116">
          <mxGeometry relative="1" as="geometry">
            <mxPoint x="300" y="350" as="targetPoint" />
          </mxGeometry>
        </mxCell>
        <mxCell id="uvgIFms-rv46Gu-G6dfy-116" value="Concatenate the strings with both the combination" style="rounded=1;whiteSpace=wrap;html=1;" vertex="1" parent="1">
          <mxGeometry x="240" y="280" width="120" height="40" as="geometry" />
        </mxCell>
        <mxCell id="uvgIFms-rv46Gu-G6dfy-121" style="edgeStyle=orthogonalEdgeStyle;rounded=0;orthogonalLoop=1;jettySize=auto;html=1;exitX=1;exitY=0.5;exitDx=0;exitDy=0;entryX=0;entryY=0.5;entryDx=0;entryDy=0;" edge="1" parent="1" source="uvgIFms-rv46Gu-G6dfy-119" target="uvgIFms-rv46Gu-G6dfy-112">
          <mxGeometry relative="1" as="geometry" />
        </mxCell>
        <mxCell id="uvgIFms-rv46Gu-G6dfy-130" value="Yes" style="edgeLabel;html=1;align=center;verticalAlign=middle;resizable=0;points=[];" vertex="1" connectable="0" parent="uvgIFms-rv46Gu-G6dfy-121">
          <mxGeometry x="0.1574" relative="1" as="geometry">
            <mxPoint x="-1" y="-1" as="offset" />
          </mxGeometry>
        </mxCell>
        <mxCell id="uvgIFms-rv46Gu-G6dfy-123" style="edgeStyle=orthogonalEdgeStyle;rounded=0;orthogonalLoop=1;jettySize=auto;html=1;exitX=0;exitY=0.5;exitDx=0;exitDy=0;entryX=1;entryY=0.5;entryDx=0;entryDy=0;" edge="1" parent="1" source="uvgIFms-rv46Gu-G6dfy-119" target="uvgIFms-rv46Gu-G6dfy-120">
          <mxGeometry relative="1" as="geometry" />
        </mxCell>
        <mxCell id="uvgIFms-rv46Gu-G6dfy-131" value="No" style="edgeLabel;html=1;align=center;verticalAlign=middle;resizable=0;points=[];" vertex="1" connectable="0" parent="uvgIFms-rv46Gu-G6dfy-123">
          <mxGeometry x="-0.1587" y="1" relative="1" as="geometry">
            <mxPoint y="-2" as="offset" />
          </mxGeometry>
        </mxCell>
        <mxCell id="uvgIFms-rv46Gu-G6dfy-119" value="&lt;font size=&quot;1&quot;&gt;c1 or c2&lt;/font&gt;" style="rhombus;whiteSpace=wrap;html=1;" vertex="1" parent="1">
          <mxGeometry x="262.5" y="440" width="75" height="70" as="geometry" />
        </mxCell>
        <mxCell id="uvgIFms-rv46Gu-G6dfy-125" style="edgeStyle=orthogonalEdgeStyle;rounded=0;orthogonalLoop=1;jettySize=auto;html=1;exitX=0;exitY=0.5;exitDx=0;exitDy=0;entryX=1;entryY=0.5;entryDx=0;entryDy=0;" edge="1" parent="1" source="uvgIFms-rv46Gu-G6dfy-120" target="uvgIFms-rv46Gu-G6dfy-124">
          <mxGeometry relative="1" as="geometry" />
        </mxCell>
        <mxCell id="uvgIFms-rv46Gu-G6dfy-120" value="Return &#39;No&#39;" style="rounded=1;whiteSpace=wrap;html=1;" vertex="1" parent="1">
          <mxGeometry x="70" y="455" width="120" height="40" as="geometry" />
        </mxCell>
        <mxCell id="uvgIFms-rv46Gu-G6dfy-124" value="" style="ellipse;whiteSpace=wrap;html=1;aspect=fixed;strokeWidth=3;" vertex="1" parent="1">
          <mxGeometry x="-10" y="455" width="40" height="40" as="geometry" />
        </mxCell>
        <mxCell id="uvgIFms-rv46Gu-G6dfy-129" style="edgeStyle=orthogonalEdgeStyle;rounded=0;orthogonalLoop=1;jettySize=auto;html=1;exitX=0.5;exitY=1;exitDx=0;exitDy=0;entryX=0.5;entryY=0;entryDx=0;entryDy=0;" edge="1" parent="1" source="uvgIFms-rv46Gu-G6dfy-128" target="uvgIFms-rv46Gu-G6dfy-119">
          <mxGeometry relative="1" as="geometry">
            <mxPoint x="340" y="440" as="targetPoint" />
          </mxGeometry>
        </mxCell>
        <mxCell id="uvgIFms-rv46Gu-G6dfy-128" value="Initialise and set c1 and c2 with the result of the function check_string(s) for each combination of strings&lt;div&gt;+&lt;/div&gt;" style="rounded=1;whiteSpace=wrap;html=1;fontSize=10;" vertex="1" parent="1">
          <mxGeometry x="235" y="350" width="130" height="60" as="geometry" />
        </mxCell>
        <mxCell id="uvgIFms-rv46Gu-G6dfy-132" style="edgeStyle=orthogonalEdgeStyle;rounded=0;orthogonalLoop=1;jettySize=auto;html=1;exitX=0.5;exitY=1;exitDx=0;exitDy=0;entryX=0.5;entryY=0;entryDx=0;entryDy=0;" edge="1" parent="1" source="uvgIFms-rv46Gu-G6dfy-133" target="uvgIFms-rv46Gu-G6dfy-135">
          <mxGeometry relative="1" as="geometry">
            <mxPoint x="900" y="190" as="targetPoint" />
          </mxGeometry>
        </mxCell>
        <mxCell id="uvgIFms-rv46Gu-G6dfy-133" value="" style="ellipse;whiteSpace=wrap;html=1;aspect=fixed;" vertex="1" parent="1">
          <mxGeometry x="800" y="160" width="40" height="40" as="geometry" />
        </mxCell>
        <mxCell id="uvgIFms-rv46Gu-G6dfy-154" style="edgeStyle=orthogonalEdgeStyle;rounded=0;orthogonalLoop=1;jettySize=auto;html=1;exitX=0.5;exitY=1;exitDx=0;exitDy=0;entryX=0.5;entryY=0;entryDx=0;entryDy=0;" edge="1" parent="1" source="uvgIFms-rv46Gu-G6dfy-135" target="uvgIFms-rv46Gu-G6dfy-145">
          <mxGeometry relative="1" as="geometry" />
        </mxCell>
        <mxCell id="uvgIFms-rv46Gu-G6dfy-135" value="Receive a string" style="rounded=1;whiteSpace=wrap;html=1;" vertex="1" parent="1">
          <mxGeometry x="760" y="240" width="120" height="40" as="geometry" />
        </mxCell>
        <mxCell id="uvgIFms-rv46Gu-G6dfy-136" style="edgeStyle=orthogonalEdgeStyle;rounded=0;orthogonalLoop=1;jettySize=auto;html=1;exitX=1;exitY=0.5;exitDx=0;exitDy=0;entryX=0;entryY=0.5;entryDx=0;entryDy=0;" edge="1" parent="1" source="uvgIFms-rv46Gu-G6dfy-137" target="uvgIFms-rv46Gu-G6dfy-138">
          <mxGeometry relative="1" as="geometry" />
        </mxCell>
        <mxCell id="uvgIFms-rv46Gu-G6dfy-137" value="Return True" style="rounded=1;whiteSpace=wrap;html=1;" vertex="1" parent="1">
          <mxGeometry x="920" y="325" width="120" height="40" as="geometry" />
        </mxCell>
        <mxCell id="uvgIFms-rv46Gu-G6dfy-138" value="" style="ellipse;whiteSpace=wrap;html=1;aspect=fixed;strokeWidth=3;" vertex="1" parent="1">
          <mxGeometry x="1080" y="325" width="40" height="40" as="geometry" />
        </mxCell>
        <mxCell id="uvgIFms-rv46Gu-G6dfy-141" style="edgeStyle=orthogonalEdgeStyle;rounded=0;orthogonalLoop=1;jettySize=auto;html=1;exitX=1;exitY=0.5;exitDx=0;exitDy=0;entryX=0;entryY=0.5;entryDx=0;entryDy=0;" edge="1" parent="1" source="uvgIFms-rv46Gu-G6dfy-145" target="uvgIFms-rv46Gu-G6dfy-137">
          <mxGeometry relative="1" as="geometry" />
        </mxCell>
        <mxCell id="uvgIFms-rv46Gu-G6dfy-142" value="Yes" style="edgeLabel;html=1;align=center;verticalAlign=middle;resizable=0;points=[];" vertex="1" connectable="0" parent="uvgIFms-rv46Gu-G6dfy-141">
          <mxGeometry x="0.1574" relative="1" as="geometry">
            <mxPoint as="offset" />
          </mxGeometry>
        </mxCell>
        <mxCell id="uvgIFms-rv46Gu-G6dfy-143" style="edgeStyle=orthogonalEdgeStyle;rounded=0;orthogonalLoop=1;jettySize=auto;html=1;exitX=0;exitY=0.5;exitDx=0;exitDy=0;entryX=1;entryY=0.5;entryDx=0;entryDy=0;" edge="1" parent="1" source="uvgIFms-rv46Gu-G6dfy-145" target="uvgIFms-rv46Gu-G6dfy-147">
          <mxGeometry relative="1" as="geometry" />
        </mxCell>
        <mxCell id="uvgIFms-rv46Gu-G6dfy-144" value="No" style="edgeLabel;html=1;align=center;verticalAlign=middle;resizable=0;points=[];" vertex="1" connectable="0" parent="uvgIFms-rv46Gu-G6dfy-143">
          <mxGeometry x="-0.1587" y="1" relative="1" as="geometry">
            <mxPoint as="offset" />
          </mxGeometry>
        </mxCell>
        <mxCell id="uvgIFms-rv46Gu-G6dfy-145" value="&lt;font size=&quot;1&quot;&gt;s &lt;/font&gt;&lt;font size=&quot;1&quot;&gt;is&amp;nbsp;&lt;/font&gt;&lt;div&gt;&lt;span style=&quot;font-size: x-small;&quot;&gt;balanced*?&lt;/span&gt;&lt;/div&gt;" style="rhombus;whiteSpace=wrap;html=1;" vertex="1" parent="1">
          <mxGeometry x="782.5" y="310" width="75" height="70" as="geometry" />
        </mxCell>
        <mxCell id="uvgIFms-rv46Gu-G6dfy-146" style="edgeStyle=orthogonalEdgeStyle;rounded=0;orthogonalLoop=1;jettySize=auto;html=1;exitX=0;exitY=0.5;exitDx=0;exitDy=0;entryX=1;entryY=0.5;entryDx=0;entryDy=0;" edge="1" parent="1" source="uvgIFms-rv46Gu-G6dfy-147" target="uvgIFms-rv46Gu-G6dfy-148">
          <mxGeometry relative="1" as="geometry" />
        </mxCell>
        <mxCell id="uvgIFms-rv46Gu-G6dfy-147" value="Return False" style="rounded=1;whiteSpace=wrap;html=1;" vertex="1" parent="1">
          <mxGeometry x="590" y="325" width="120" height="40" as="geometry" />
        </mxCell>
        <mxCell id="uvgIFms-rv46Gu-G6dfy-148" value="" style="ellipse;whiteSpace=wrap;html=1;aspect=fixed;strokeWidth=3;" vertex="1" parent="1">
          <mxGeometry x="510" y="325" width="40" height="40" as="geometry" />
        </mxCell>
        <mxCell id="uvgIFms-rv46Gu-G6dfy-149" value="*balanced means that every &#39;(&#39; has matching &#39;)&#39;, and closures never exceed openings in order" style="rounded=0;whiteSpace=wrap;html=1;" vertex="1" parent="1">
          <mxGeometry x="960" y="170" width="136" height="100" as="geometry" />
        </mxCell>
        <mxCell id="uvgIFms-rv46Gu-G6dfy-152" value="check_string(s)" style="text;html=1;align=center;verticalAlign=middle;resizable=0;points=[];autosize=1;strokeColor=none;fillColor=none;" vertex="1" parent="1">
          <mxGeometry x="680" y="140" width="110" height="30" as="geometry" />
        </mxCell>
      </root>
    </mxGraphModel>
  </diagram>
</mxfile>